# xmcd
#
# Track frame offsets:
#	150
#	17325
#	34043
#	50900
#	68813
#	83384
#	94899
#	109311
#	125547
#	141987
#	158973
#	173641
#	190886
#	211600
#	228724
#	245853
#	260371
#	275422
#	287776
#	307311
#	322593
#	336100
#
# Disc length: 4669 seconds
#
# Revision: 0
# Processed by: cddbd v1.5.2PL0 Copyright (c) Steve Scherf et al.
# Submitted via: dBpowerAMP V4.0
#
DISCID=40123b16
DTITLE=Various Artist - ERG Nu Country Traxx Vol. 189 CAN
DYEAR=2010
DGENRE=Country
TTITLE0=Kenny Chesney - Ain't Back Yet
TTITLE1=George Canyon - I Believe In Angels
TTITLE2=Tim McGraw - Still
TTITLE3=Jaydee Bixby - Boy Inside The Man
TTITLE4=Reba - I Keep On Lovin' You
TTITLE5=Gord Bamford - Day Job
TTITLE6=George Strait - I Gotta Get To You
TTITLE7=Jimmy Wayne ft. Whitney Duncan - Just Knowing You Love Me
TTITLE8=Deric Ruttan - Up All Night
TTITLE9=Julian Austin - Goodbye Exit Sign
TTITLE10=Mallary Hope - Blossom In The Dust
TTITLE11=Misty Lee Olsen - Story Of A Girl
TTITLE12=Chad Brownlee - Hope
TTITLE13=Higgins, The - Free Like Love
TTITLE14=Emily West ft. Keith Urban - Blue Sky
TTITLE15=Marshall Dane - Love And Alcohol
TTITLE16=Coldwater Jane - Bring On The Love
TTITLE17=Marlee Scott - 5 O'clock Dance
TTITLE18=David Nail - Turning Home
TTITLE19=Bryce Pallister - City To City
TTITLE20=Steven Lee Olsen - Make Hay While The Sun Shines
TTITLE21=Ash Bowers - Ain't No Stopping Her Now
EXTD=
EXTT0=
EXTT1=
EXTT2=
EXTT3=
EXTT4=
EXTT5=
EXTT6=
EXTT7=
EXTT8=
EXTT9=
EXTT10=
EXTT11=
EXTT12=
EXTT13=
EXTT14=
EXTT15=
EXTT16=
EXTT17=
EXTT18=
EXTT19=
EXTT20=
EXTT21=
PLAYORDER=
